<svg width="414" height="146" viewBox="0 0 414 146" fill="none" xmlns="http://www.w3.org/2000/svg">
<g style="mix-blend-mode:luminosity">
<path d="M363.85 143.417H348.876V2.11328L363.85 2.11328V143.417ZM413.834 15.8219L298.682 15.8219V2.11328L413.834 2.11328V15.8219Z" fill="#F5F5F5"/>
<path d="M251.375 145.522C238.44 145.522 227.824 143.483 219.529 139.406C211.234 135.188 205.047 129.704 200.97 122.956C197.033 116.066 195.064 108.614 195.064 100.6V97.4365H210.038V99.5456C210.038 106.154 211.304 111.848 213.835 116.629C216.506 121.268 220.865 124.924 226.911 127.595C232.956 130.126 241.252 131.392 251.797 131.392C263.607 131.392 272.254 129.423 277.738 125.486C283.362 121.55 286.174 115.574 286.174 107.56C286.174 102.217 285.26 97.9287 283.432 94.6948C281.745 91.3204 278.792 88.5787 274.574 86.4697C270.497 84.3606 264.873 82.5328 257.702 80.9862L233.238 75.7137C225.786 74.1671 219.248 71.9175 213.624 68.9648C208.14 65.8716 203.782 61.8645 200.548 56.9434C197.455 51.8818 195.908 45.625 195.908 38.1732C195.908 31.2837 197.806 24.9567 201.602 19.192C205.399 13.2868 211.023 8.64696 218.475 5.27253C226.067 1.75751 235.347 0 246.314 0C258.546 0 268.529 2.17931 276.262 6.53794C284.135 10.756 289.9 16.38 293.555 23.4101C297.211 30.2995 299.039 37.6108 299.039 45.3438V48.0856H284.065V45.7656C284.065 39.1574 282.8 33.5333 280.269 28.8935C277.878 24.1131 273.871 20.4575 268.247 17.9266C262.764 15.2552 255.382 13.9195 246.103 13.9195C234.433 13.9195 225.715 15.8879 219.951 19.8247C214.186 23.621 211.304 29.3856 211.304 37.1187C211.304 42.4615 212.218 46.7499 214.046 49.9837C215.873 53.0769 218.896 55.6077 223.114 57.5761C227.332 59.404 232.816 61.0912 239.565 62.6378L264.029 68.3321C271.903 70.0193 278.581 72.4799 284.065 75.7137C289.548 78.8069 293.766 82.8843 296.719 87.946C299.812 93.0076 301.359 99.2644 301.359 106.716C301.359 113.746 299.531 120.284 295.875 126.33C292.22 132.235 286.666 136.945 279.214 140.46C271.762 143.835 262.483 145.522 251.375 145.522Z" fill="#F5F5F5"/>
<path d="M83.6516 143.416H66.623L158.775 2.30469L182.26 2.30469V143.416H166.867L167.395 16.646H166.34L83.6516 143.416Z" fill="#F5F5F5"/>
<path d="M15.1849 143.417H0V2.11328L15.1849 2.11328V143.417ZM91.5313 83.3104L5.06164 83.3104V69.6018L91.5313 69.6018V83.3104ZM94.6948 15.8219L5.06164 15.8219V2.11328L94.6948 2.11328V15.8219Z" fill="#F5F5F5"/>
</g>
</svg>
